<svg width="280" height="86" viewBox="0 0 280 86" fill="none" xmlns="http://www.w3.org/2000/svg">
<g filter="url(#filter0_d_1_3)">
<path d="M46.192 12.864C46.32 13.5893 46.4053 14.1013 46.448 14.4C46.5333 14.656 46.576 15.0187 46.576 15.488C46.576 16.896 46.256 18.2187 45.616 19.456C45.0187 20.6507 44.1867 21.504 43.12 22.016C42.2667 20.864 41.2213 19.8827 39.984 19.072C38.7467 18.2187 37.3813 17.536 35.888 17.024C34.4373 16.4693 32.9227 16.064 31.344 15.808C29.7653 15.552 28.2293 15.424 26.736 15.424C25.2427 15.424 23.8347 15.552 22.512 15.808C21.232 16.0213 20.08 16.3413 19.056 16.768C18.0747 17.152 17.2853 17.6427 16.688 18.24C16.1333 18.8373 15.856 19.52 15.856 20.288C15.984 21.2267 16.56 22.1867 17.584 23.168C18.608 24.1067 19.8667 25.0453 21.36 25.984C22.8533 26.88 24.496 27.776 26.288 28.672C28.1227 29.568 29.9147 30.4213 31.664 31.232C33.84 32.256 35.7173 33.216 37.296 34.112C38.8747 34.9653 40.176 35.9253 41.2 36.992C42.224 38.016 42.992 39.1893 43.504 40.512C44.016 41.8347 44.272 43.4347 44.272 45.312C44.272 47.488 43.9093 49.536 43.184 51.456C42.4587 53.3333 41.392 54.976 39.984 56.384C38.6187 57.792 36.9547 58.88 34.992 59.648C33.0293 60.4587 30.832 60.864 28.4 60.864C26.0107 60.864 23.4293 60.5013 20.656 59.776C17.8827 59.0507 15.28 58.048 12.848 56.768C10.4587 55.5307 8.45333 54.1013 6.832 52.48C5.25333 50.816 4.464 49.0667 4.464 47.232C4.464 46.3787 4.69867 45.2907 5.168 43.968C5.68 42.6453 6.576 41.2587 7.856 39.808C7.984 41.088 8.66667 42.6027 9.904 44.352C11.184 46.1013 13.0827 47.7227 15.6 49.216C17.9467 50.5813 20.3573 51.584 22.832 52.224C25.3493 52.8213 27.696 53.12 29.872 53.12C32.2613 53.12 34.2027 52.8213 35.696 52.224C37.1893 51.6267 38.3627 50.9227 39.216 50.112C40.0693 49.2587 40.6667 48.4053 41.008 47.552C41.3493 46.6987 41.5413 46.016 41.584 45.504C41.5413 44.6507 41.136 43.84 40.368 43.072C39.6427 42.2613 38.64 41.4933 37.36 40.768C36.1227 40 34.672 39.232 33.008 38.464C31.344 37.696 29.616 36.928 27.824 36.16C25.136 34.9653 22.8107 33.856 20.848 32.832C18.928 31.7653 17.328 30.6987 16.048 29.632C14.8107 28.5227 13.8933 27.3707 13.296 26.176C12.7413 24.9813 12.464 23.616 12.464 22.08C12.464 19.6907 13.1893 17.4293 14.64 15.296C16.0907 13.1627 18.1813 11.5413 20.912 10.432C22.2773 9.83467 23.728 9.408 25.264 9.152C26.8427 8.896 28.3787 8.768 29.872 8.768C32.688 8.768 35.44 9.152 38.128 9.92C40.816 10.688 43.504 11.6693 46.192 12.864ZM44.4735 77.184C43.8762 77.0133 43.5348 76.3733 43.4495 75.264C43.2788 74.7093 43.1508 74.048 43.0655 73.28C43.0228 72.512 43.0015 71.6373 43.0015 70.656C43.0015 69.76 43.1508 68.5227 43.4495 66.944C43.7482 65.408 44.1535 63.6587 44.6655 61.696C45.2202 59.7333 45.8815 57.6213 46.6495 55.36C47.4175 53.056 48.2708 50.7307 49.2095 48.384C50.3615 45.44 51.3642 42.9013 52.2175 40.768C53.0708 38.592 53.7748 36.7147 54.3295 35.136C54.9268 33.5573 55.3962 32.256 55.7375 31.232C56.1215 30.208 56.4202 29.3333 56.6335 28.608C56.8042 28.096 57.0602 27.4773 57.4015 26.752C57.7428 26.0267 58.1268 25.3013 58.5535 24.576C59.0228 23.808 59.4922 23.104 59.9615 22.464C60.4308 21.7813 60.8575 21.2693 61.2415 20.928C62.7348 21.1413 64.1428 21.5253 65.4655 22.08C66.7882 22.6347 67.5988 23.168 67.8975 23.68C67.3002 24.2347 66.6175 25.1093 65.8495 26.304C65.0815 27.456 64.3348 28.736 63.6095 30.144C62.8842 31.5093 62.2228 32.9173 61.6255 34.368C61.0282 35.8187 60.5802 37.0987 60.2815 38.208C60.7082 37.4827 61.2628 36.6933 61.9455 35.84C62.6282 34.9867 63.6735 33.8133 65.0815 32.32C66.6602 30.6987 68.1322 29.4613 69.4975 28.608C70.9055 27.712 72.1215 27.264 73.1455 27.264C74.7668 27.264 76.0895 27.712 77.1135 28.608C78.1802 29.504 78.7135 30.656 78.7135 32.064C78.7135 35.136 78.2015 38.1867 77.1775 41.216C76.1535 44.2027 74.6815 46.912 72.7615 49.344C72.0362 50.2827 71.1828 51.1787 70.2015 52.032C69.2202 52.8853 68.1962 53.6533 67.1295 54.336C66.0628 54.976 65.0175 55.488 63.9935 55.872C62.9695 56.256 62.0522 56.448 61.2415 56.448C60.4735 56.448 59.7908 56.2987 59.1935 56C58.6388 55.6587 58.2548 55.2533 58.0415 54.784C59.7055 53.8027 61.3268 52.4373 62.9055 50.688C64.4842 48.9387 65.9348 46.9333 67.2575 44.672C68.6228 42.368 69.7962 39.8933 70.7775 37.248C71.8015 34.6027 72.5695 31.9147 73.0815 29.184C71.4602 30.0373 69.9882 30.976 68.6655 32C67.3855 32.9813 66.1055 34.2827 64.8255 35.904C63.2895 37.7813 62.0735 39.296 61.1775 40.448C60.2815 41.6 59.5348 42.5813 58.9375 43.392C58.3828 44.2027 57.9135 44.9707 57.5295 45.696C57.1882 46.3787 56.8042 47.232 56.3775 48.256C55.7802 49.6213 55.0762 51.4347 54.2655 53.696C53.4975 55.9147 52.6868 58.4107 51.8335 61.184C51.0228 63.9573 50.1908 66.9013 49.3375 70.016C48.5268 73.1733 47.7375 76.3093 46.9695 79.424C46.5002 79.3387 46.0948 78.9973 45.7535 78.4C45.4122 78.016 45.1562 77.7387 44.9855 77.568C44.8575 77.3973 44.6868 77.2693 44.4735 77.184ZM103.933 29.504C103.762 32.1493 103.293 34.432 102.525 36.352C101.757 38.2293 100.647 39.8933 99.1965 41.344C97.7885 42.752 96.0605 44.032 94.0125 45.184C91.9645 46.336 89.5752 47.4453 86.8445 48.512C86.8445 48.768 86.8232 49.0453 86.7805 49.344C86.7805 49.6 86.7805 49.8773 86.7805 50.176C86.7805 50.7307 86.8232 51.3067 86.9085 51.904C86.9938 52.5013 87.1432 53.056 87.3565 53.568C87.5698 54.08 87.8685 54.5067 88.2525 54.848C88.6365 55.1467 89.1272 55.296 89.7245 55.296C90.8765 55.296 92.0072 55.04 93.1165 54.528C94.2258 54.016 95.2712 53.3973 96.2525 52.672C97.2765 51.904 98.2152 51.0933 99.0685 50.24C99.9645 49.344 100.754 48.5333 101.437 47.808C101.863 48.192 102.226 48.5547 102.525 48.896C100.605 51.456 98.4925 53.5893 96.1885 55.296C93.9272 56.96 91.7725 58.0267 89.7245 58.496C86.7805 58.1547 84.4765 57.088 82.8125 55.296C81.1912 53.4613 80.3805 51.264 80.3805 48.704C80.3805 46.9547 80.6152 45.184 81.0845 43.392C81.5965 41.5573 82.2792 39.808 83.1325 38.144C84.0285 36.4373 85.0525 34.8373 86.2045 33.344C87.3992 31.8507 88.6578 30.5493 89.9805 29.44C91.3458 28.3307 92.7325 27.456 94.1405 26.816C95.5912 26.176 97.0205 25.856 98.4285 25.856C100.391 26.112 102.226 27.328 103.933 29.504ZM99.5165 31.616C98.3645 31.7867 97.1698 32.256 95.9325 33.024C94.6952 33.792 93.5218 34.816 92.4125 36.096C91.3458 37.376 90.3645 38.8693 89.4685 40.576C88.5725 42.2827 87.8685 44.1173 87.3565 46.08C90.7698 44.3733 93.6072 42.2827 95.8685 39.808C98.1298 37.2907 99.3458 34.56 99.5165 31.616ZM107.28 44.736C107.28 42.304 107.77 39.9573 108.752 37.696C109.776 35.392 111.098 33.3653 112.72 31.616C114.384 29.824 116.261 28.3947 118.352 27.328C120.485 26.2187 122.682 25.664 124.944 25.664C127.162 25.664 128.869 26.2187 130.064 27.328C131.258 28.4373 131.856 30.016 131.856 32.064C131.856 33.0453 131.706 34.0053 131.408 34.944C131.152 35.84 130.789 36.6507 130.32 37.376C129.893 38.1013 129.381 38.6987 128.784 39.168C128.186 39.5947 127.589 39.808 126.992 39.808C126.48 39.808 125.946 39.6587 125.392 39.36C124.88 39.0187 124.453 38.592 124.112 38.08C126.97 35.4773 128.4 33.1093 128.4 30.976C128.4 29.7387 127.909 29.12 126.928 29.12C126.074 29.12 125.008 29.5253 123.728 30.336C122.448 31.1467 121.21 32.2133 120.016 33.536C118.181 35.584 116.773 37.8667 115.792 40.384C114.853 42.8587 114.384 45.4613 114.384 48.192C114.384 51.648 115.152 53.7173 116.688 54.4C117.328 54.3147 118.074 54.1227 118.928 53.824C119.781 53.5253 120.698 53.1413 121.68 52.672C122.661 52.16 123.664 51.584 124.688 50.944C125.754 50.304 126.778 49.6213 127.76 48.896C127.93 49.024 128.08 49.216 128.208 49.472C128.336 49.728 128.4 49.9627 128.4 50.176C127.674 51.072 126.842 51.9467 125.904 52.8C124.965 53.6533 123.984 54.4427 122.96 55.168C121.936 55.8507 120.933 56.4267 119.952 56.896C119.013 57.408 118.181 57.728 117.456 57.856C116.048 57.728 114.725 57.28 113.488 56.512C112.25 55.7867 111.162 54.8267 110.224 53.632C109.328 52.4373 108.602 51.072 108.048 49.536C107.536 48 107.28 46.4 107.28 44.736ZM133.835 51.712C133.835 51.328 133.856 50.8587 133.899 50.304C133.984 49.7067 134.112 48.9387 134.283 48C134.453 47.0187 134.667 45.8453 134.923 44.48C135.221 43.1147 135.584 41.472 136.01 39.552C136.096 39.1253 136.288 38.4427 136.587 37.504C136.885 36.5653 137.269 35.584 137.739 34.56C138.251 33.4933 138.848 32.4693 139.531 31.488C140.256 30.5067 141.109 29.7813 142.091 29.312C142.816 29.4827 143.776 29.9307 144.971 30.656C146.165 31.3387 147.189 32.2987 148.043 33.536C147.061 34.6453 146.229 35.7547 145.547 36.864C144.907 37.9733 144.309 39.1253 143.755 40.32C143.243 41.5147 142.752 42.752 142.283 44.032C141.856 45.312 141.365 46.656 140.811 48.064C140.341 49.2587 139.915 50.496 139.531 51.776C139.147 53.0133 138.933 54.1013 138.891 55.04C138.891 55.808 138.869 56.3413 138.827 56.64C138.827 56.9813 138.72 57.152 138.507 57.152C138.336 57.152 137.995 57.0453 137.483 56.832C136.971 56.6187 136.437 56.2987 135.883 55.872C135.371 55.4027 134.901 54.8267 134.475 54.144C134.048 53.4613 133.835 52.6507 133.835 51.712ZM146.059 23.936C146.059 23.68 146.123 23.296 146.251 22.784C146.037 22.5707 145.845 22.2507 145.675 21.824C145.547 21.3973 145.483 21.0133 145.483 20.672C145.483 20.288 145.525 19.776 145.611 19.136C145.739 18.4533 145.888 17.728 146.059 16.96C146.229 16.192 146.443 15.4027 146.699 14.592C146.955 13.7387 147.211 12.9707 147.467 12.288C147.979 12.288 148.597 12.4373 149.323 12.736C150.091 12.992 150.859 13.3547 151.627 13.824C152.395 14.2507 153.099 14.7413 153.739 15.296C154.379 15.808 154.869 16.2987 155.211 16.768C154.741 17.2373 154.123 17.8987 153.355 18.752C152.587 19.5627 151.84 20.4373 151.115 21.376C150.389 22.272 149.728 23.1253 149.131 23.936C148.533 24.7467 148.149 25.3227 147.979 25.664C147.467 25.5787 147.019 25.3653 146.635 25.024C146.251 24.64 146.059 24.2773 146.059 23.936ZM170.976 30.144C171.402 30.144 171.893 30.2293 172.448 30.4C173.045 30.528 173.578 30.72 174.048 30.976C174.517 31.1893 174.901 31.424 175.2 31.68C175.541 31.936 175.712 32.1707 175.712 32.384C174.858 34.176 174.069 35.9893 173.344 37.824C172.618 39.616 172 41.344 171.488 43.008C170.976 44.672 170.57 46.2293 170.272 47.68C170.016 49.1307 169.888 50.3893 169.888 51.456C169.888 52.6507 170.016 53.6533 170.272 54.464C170.528 55.232 170.954 55.7867 171.552 56.128C171.04 56.4693 170.378 56.7467 169.568 56.96C168.757 57.1733 168.032 57.28 167.392 57.28C165.088 57.28 163.936 55.7013 163.936 52.544C163.936 50.112 164.746 46.784 166.368 42.56C165.514 44.5227 164.533 46.3787 163.424 48.128C162.314 49.8347 161.184 51.3493 160.032 52.672C158.88 53.9947 157.706 55.0827 156.512 55.936C155.36 56.7467 154.293 57.2373 153.312 57.408C151.733 57.3227 150.453 56.576 149.472 55.168C148.49 53.7173 148 51.8827 148 49.664C148 47.2747 148.512 44.7573 149.536 42.112C150.56 39.4667 151.861 37.0133 153.44 34.752C155.061 32.4907 156.81 30.6133 158.688 29.12C160.565 27.584 162.378 26.7733 164.128 26.688C164.554 26.816 165.024 27.072 165.536 27.456C166.09 27.84 166.602 28.288 167.072 28.8C167.584 29.312 168.01 29.8453 168.352 30.4C168.693 30.912 168.885 31.36 168.928 31.744C167.221 32 165.45 32.832 163.616 34.24C161.824 35.648 160.181 37.3547 158.688 39.36C157.237 41.3227 156.042 43.4347 155.104 45.696C154.165 47.9573 153.696 50.0693 153.696 52.032C153.696 52.8427 153.994 53.3547 154.592 53.568C155.829 53.312 157.258 52.2667 158.88 50.432C160.501 48.5547 162.464 45.6747 164.768 41.792C165.194 41.024 165.664 40.1707 166.176 39.232C166.73 38.2933 167.285 37.312 167.84 36.288C168.394 35.264 168.928 34.24 169.44 33.216C169.994 32.1493 170.506 31.1253 170.976 30.144ZM178.894 51.904C178.894 50.0267 179.342 47.4027 180.238 44.032C181.134 40.6187 182.393 36.6507 184.014 32.128C186.659 24.9173 189.134 18.9227 191.438 14.144C193.785 9.32266 196.067 5.568 198.286 2.88C198.798 2.96533 199.417 3.17866 200.142 3.52C200.91 3.86133 201.657 4.24533 202.382 4.672C203.107 5.056 203.747 5.46133 204.302 5.888C204.899 6.31466 205.283 6.656 205.454 6.912C202.126 10.8373 199.203 15.0613 196.686 19.584C194.169 24.1067 191.865 29.2907 189.774 35.136C187.982 40.1707 186.617 44.7147 185.678 48.768C184.739 52.7787 184.27 56.128 184.27 58.816C184.27 59.5413 184.27 59.9893 184.27 60.16C184.27 60.3307 184.291 60.5013 184.334 60.672C183.737 60.5867 183.225 60.4373 182.798 60.224C182.371 60.0107 182.094 59.7547 181.966 59.456C181.881 59.2427 181.646 58.9227 181.262 58.496C180.878 58.112 180.537 57.8133 180.238 57.6C179.854 57.344 179.534 56.6827 179.278 55.616C179.022 54.5067 178.894 53.2693 178.894 51.904ZM194.147 51.712C194.147 51.328 194.168 50.8587 194.211 50.304C194.296 49.7067 194.424 48.9387 194.595 48C194.766 47.0187 194.979 45.8453 195.235 44.48C195.534 43.1147 195.896 41.472 196.323 39.552C196.408 39.1253 196.6 38.4427 196.899 37.504C197.198 36.5653 197.582 35.584 198.051 34.56C198.563 33.4933 199.16 32.4693 199.843 31.488C200.568 30.5067 201.422 29.7813 202.403 29.312C203.128 29.4827 204.088 29.9307 205.283 30.656C206.478 31.3387 207.502 32.2987 208.355 33.536C207.374 34.6453 206.542 35.7547 205.859 36.864C205.219 37.9733 204.622 39.1253 204.067 40.32C203.555 41.5147 203.064 42.752 202.595 44.032C202.168 45.312 201.678 46.656 201.123 48.064C200.654 49.2587 200.227 50.496 199.843 51.776C199.459 53.0133 199.246 54.1013 199.203 55.04C199.203 55.808 199.182 56.3413 199.139 56.64C199.139 56.9813 199.032 57.152 198.819 57.152C198.648 57.152 198.307 57.0453 197.795 56.832C197.283 56.6187 196.75 56.2987 196.195 55.872C195.683 55.4027 195.214 54.8267 194.787 54.144C194.36 53.4613 194.147 52.6507 194.147 51.712ZM206.371 23.936C206.371 23.68 206.435 23.296 206.563 22.784C206.35 22.5707 206.158 22.2507 205.987 21.824C205.859 21.3973 205.795 21.0133 205.795 20.672C205.795 20.288 205.838 19.776 205.923 19.136C206.051 18.4533 206.2 17.728 206.371 16.96C206.542 16.192 206.755 15.4027 207.011 14.592C207.267 13.7387 207.523 12.9707 207.779 12.288C208.291 12.288 208.91 12.4373 209.635 12.736C210.403 12.992 211.171 13.3547 211.939 13.824C212.707 14.2507 213.411 14.7413 214.051 15.296C214.691 15.808 215.182 16.2987 215.523 16.768C215.054 17.2373 214.435 17.8987 213.667 18.752C212.899 19.5627 212.152 20.4373 211.427 21.376C210.702 22.272 210.04 23.1253 209.443 23.936C208.846 24.7467 208.462 25.3227 208.291 25.664C207.779 25.5787 207.331 25.3653 206.947 25.024C206.563 24.64 206.371 24.2773 206.371 23.936ZM231.288 30.528C231.245 31.3387 231.096 32.192 230.84 33.088C230.627 33.9413 230.349 34.7307 230.008 35.456C229.667 36.1387 229.304 36.7147 228.92 37.184C228.536 37.6533 228.173 37.888 227.832 37.888C227.363 37.8453 227.085 37.5253 227 36.928C227 36.8 227.043 36.608 227.128 36.352C227.256 36.0533 227.384 35.7333 227.512 35.392C227.64 35.0507 227.747 34.7093 227.832 34.368C227.96 34.0267 228.024 33.728 228.024 33.472C228.024 32.8747 227.875 32.384 227.576 32C227.32 31.5733 226.957 31.36 226.488 31.36C224.781 31.36 223.48 32.4267 222.584 34.56C221.688 36.6933 221.24 39.8293 221.24 43.968C221.24 44.3947 221.261 44.6507 221.304 44.736C222.2 44.6933 222.989 44.672 223.672 44.672C224.397 44.6293 225.101 44.608 225.784 44.608C225.827 44.6933 225.848 44.864 225.848 45.12C225.848 45.504 225.763 45.7813 225.592 45.952C224.611 46.1653 223.821 46.3573 223.224 46.528C222.669 46.656 222.243 46.784 221.944 46.912C221.645 47.04 221.453 47.1893 221.368 47.36C221.325 47.488 221.304 47.68 221.304 47.936C221.304 48.2773 221.304 48.6187 221.304 48.96C221.347 49.3013 221.368 49.728 221.368 50.24C221.368 53.824 220.387 56.704 218.424 58.88C216.504 61.056 213.816 62.3147 210.36 62.656C209.763 62.6133 209.144 62.4427 208.504 62.144C207.864 61.8453 207.245 61.4613 206.648 60.992C206.093 60.5227 205.603 59.9893 205.176 59.392C204.749 58.8373 204.451 58.2613 204.28 57.664C204.28 56.0427 204.621 54.5067 205.304 53.056C205.987 51.5627 206.904 50.2613 208.056 49.152C209.251 48 210.637 47.0827 212.216 46.4C213.837 45.6747 215.587 45.248 217.464 45.12C217.464 44.0533 217.357 43.008 217.144 41.984C216.931 40.96 216.696 39.9787 216.44 39.04C216.227 38.0587 216.013 37.12 215.8 36.224C215.587 35.2853 215.48 34.368 215.48 33.472C215.48 32.32 215.715 31.1893 216.184 30.08C216.653 28.928 217.272 27.8827 218.04 26.944C218.808 25.9627 219.704 25.1307 220.728 24.448C221.752 23.7653 222.819 23.296 223.928 23.04C224.397 23.168 225.016 23.552 225.784 24.192C226.595 24.7893 227.384 25.472 228.152 26.24C228.92 27.008 229.603 27.7973 230.2 28.608C230.797 29.376 231.16 30.016 231.288 30.528ZM210.168 59.712C211.192 59.2853 212.152 58.6667 213.048 57.856C213.987 57.0453 214.797 56.128 215.48 55.104C216.163 54.08 216.696 52.992 217.08 51.84C217.507 50.688 217.72 49.5573 217.72 48.448C216.867 48.576 215.928 48.9813 214.904 49.664C213.88 50.304 212.92 51.0933 212.024 52.032C211.128 52.928 210.381 53.8667 209.784 54.848C209.187 55.8293 208.888 56.6827 208.888 57.408C208.888 58.3467 209.315 59.1147 210.168 59.712ZM235.109 31.488C234.896 31.232 234.704 30.6987 234.533 29.888C234.362 29.0347 234.277 28.3093 234.277 27.712C235.386 27.7973 236.453 27.8827 237.477 27.968C238.501 28.0107 239.44 28.0533 240.293 28.096C240.933 26.816 241.616 25.5573 242.341 24.32C243.109 23.04 243.834 21.888 244.517 20.864C245.242 19.7973 245.904 18.9013 246.501 18.176C247.141 17.4507 247.632 16.9813 247.973 16.768C248.4 16.768 248.933 16.8533 249.573 17.024C250.256 17.152 250.938 17.344 251.621 17.6C252.304 17.8133 252.922 18.048 253.477 18.304C254.032 18.56 254.416 18.816 254.629 19.072C253.349 20.6933 252.24 22.208 251.301 23.616C250.405 24.9813 249.424 26.56 248.357 28.352C249.21 28.352 250.064 28.3307 250.917 28.288C251.813 28.2453 252.709 28.1813 253.605 28.096C253.818 28.3093 253.989 28.5867 254.117 28.928C254.245 29.2267 254.309 29.5467 254.309 29.888C252.218 30.656 249.68 31.0827 246.693 31.168C245.626 33.216 244.666 35.264 243.813 37.312C243.002 39.3173 242.298 41.2587 241.701 43.136C241.146 45.0133 240.698 46.784 240.357 48.448C240.058 50.112 239.909 51.6053 239.909 52.928C239.909 54.8053 240.613 55.8507 242.021 56.064C243.301 55.8933 244.517 55.5733 245.669 55.104C246.821 54.6347 247.845 54.0373 248.741 53.312C248.997 53.696 249.146 54.016 249.189 54.272C248.933 54.656 248.485 55.104 247.845 55.616C247.248 56.128 246.586 56.6187 245.861 57.088C245.136 57.6 244.432 58.0267 243.749 58.368C243.066 58.7093 242.554 58.9013 242.213 58.944C241.146 58.9013 240.08 58.6667 239.013 58.24C237.946 57.8133 236.965 57.28 236.069 56.64C235.216 56 234.512 55.296 233.957 54.528C233.402 53.7173 233.125 52.928 233.125 52.16C233.125 51.136 233.253 49.856 233.509 48.32C233.808 46.7413 234.213 45.0347 234.725 43.2C235.237 41.3653 235.834 39.4453 236.517 37.44C237.2 35.4347 237.946 33.4507 238.757 31.488H235.109ZM275.913 30.528C275.87 31.3387 275.721 32.192 275.465 33.088C275.252 33.9413 274.974 34.7307 274.633 35.456C274.292 36.1387 273.929 36.7147 273.545 37.184C273.161 37.6533 272.798 37.888 272.457 37.888C271.988 37.8453 271.71 37.5253 271.625 36.928C271.625 36.8 271.668 36.608 271.753 36.352C271.881 36.0533 272.009 35.7333 272.137 35.392C272.265 35.0507 272.372 34.7093 272.457 34.368C272.585 34.0267 272.649 33.728 272.649 33.472C272.649 32.8747 272.5 32.384 272.201 32C271.945 31.5733 271.582 31.36 271.113 31.36C269.406 31.36 268.105 32.4267 267.209 34.56C266.313 36.6933 265.865 39.8293 265.865 43.968C265.865 44.3947 265.886 44.6507 265.929 44.736C266.825 44.6933 267.614 44.672 268.297 44.672C269.022 44.6293 269.726 44.608 270.409 44.608C270.452 44.6933 270.473 44.864 270.473 45.12C270.473 45.504 270.388 45.7813 270.217 45.952C269.236 46.1653 268.446 46.3573 267.849 46.528C267.294 46.656 266.868 46.784 266.569 46.912C266.27 47.04 266.078 47.1893 265.993 47.36C265.95 47.488 265.929 47.68 265.929 47.936C265.929 48.2773 265.929 48.6187 265.929 48.96C265.972 49.3013 265.993 49.728 265.993 50.24C265.993 53.824 265.012 56.704 263.049 58.88C261.129 61.056 258.441 62.3147 254.985 62.656C254.388 62.6133 253.769 62.4427 253.129 62.144C252.489 61.8453 251.87 61.4613 251.273 60.992C250.718 60.5227 250.228 59.9893 249.801 59.392C249.374 58.8373 249.076 58.2613 248.905 57.664C248.905 56.0427 249.246 54.5067 249.929 53.056C250.612 51.5627 251.529 50.2613 252.681 49.152C253.876 48 255.262 47.0827 256.841 46.4C258.462 45.6747 260.212 45.248 262.089 45.12C262.089 44.0533 261.982 43.008 261.769 41.984C261.556 40.96 261.321 39.9787 261.065 39.04C260.852 38.0587 260.638 37.12 260.425 36.224C260.212 35.2853 260.105 34.368 260.105 33.472C260.105 32.32 260.34 31.1893 260.809 30.08C261.278 28.928 261.897 27.8827 262.665 26.944C263.433 25.9627 264.329 25.1307 265.353 24.448C266.377 23.7653 267.444 23.296 268.553 23.04C269.022 23.168 269.641 23.552 270.409 24.192C271.22 24.7893 272.009 25.472 272.777 26.24C273.545 27.008 274.228 27.7973 274.825 28.608C275.422 29.376 275.785 30.016 275.913 30.528ZM254.793 59.712C255.817 59.2853 256.777 58.6667 257.673 57.856C258.612 57.0453 259.422 56.128 260.105 55.104C260.788 54.08 261.321 52.992 261.705 51.84C262.132 50.688 262.345 49.5573 262.345 48.448C261.492 48.576 260.553 48.9813 259.529 49.664C258.505 50.304 257.545 51.0933 256.649 52.032C255.753 52.928 255.006 53.8667 254.409 54.848C253.812 55.8293 253.513 56.6827 253.513 57.408C253.513 58.3467 253.94 59.1147 254.793 59.712Z" fill="url(#paint0_linear_1_3)"/>
</g>
<defs>
<filter id="filter0_d_1_3" x="0.464005" y="0.879997" width="279.449" height="84.544" filterUnits="userSpaceOnUse" color-interpolation-filters="sRGB">
<feFlood flood-opacity="0" result="BackgroundImageFix"/>
<feColorMatrix in="SourceAlpha" type="matrix" values="0 0 0 0 0 0 0 0 0 0 0 0 0 0 0 0 0 0 127 0" result="hardAlpha"/>
<feOffset dy="2"/>
<feGaussianBlur stdDeviation="2"/>
<feComposite in2="hardAlpha" operator="out"/>
<feColorMatrix type="matrix" values="0 0 0 0 1 0 0 0 0 1 0 0 0 0 1 0 0 0 0.25 0"/>
<feBlend mode="normal" in2="BackgroundImageFix" result="effect1_dropShadow_1_3"/>
<feBlend mode="normal" in="SourceGraphic" in2="effect1_dropShadow_1_3" result="shape"/>
</filter>
<linearGradient id="paint0_linear_1_3" x1="134" y1="-13" x2="134" y2="80" gradientUnits="userSpaceOnUse">
<stop stop-color="#EE00FF"/>
<stop offset="0.5" stop-color="#9A0386"/>
<stop offset="1" stop-color="#760261"/>
</linearGradient>
</defs>
</svg>
